<?xml version="1.0" encoding="UTF-8"?>
<svg xmlns="http://www.w3.org/2000/svg" viewBox="0 0 193.02 70.75">
  <defs>
    <style>
      .cls-1 {
        fill: #358fb8;
      }

      .cls-2 {
        fill: #bca9d2;
      }

      .cls-3 {
        fill: #bbcfe2;
      }

      .cls-4 {
        fill: #95bad4;
      }

      .cls-5 {
        fill: #0371a1;
        stroke: #0371a1;
        stroke-miterlimit: 10;
      }

      .cls-6 {
        fill: #010101;
      }

      .cls-7 {
        fill: #6ca3c5;
      }

      .cls-8 {
        fill: #d6e7f4;
      }
    </style>
  </defs>
  <g id="Icon">
    <circle class="cls-2" cx="185" cy="57.16" r="3.26"/>
    <g>
      <path class="cls-8" d="M44.25,47.6c.05-.07.87-1.1,1.38-1.7,3.58-4.2,7.48-8.64,10.24-13.44.97-1.69,5.16-13.01,5.8-12.73,4.84,2.13,6.24,21.43,3.17,25.54-1.65,2.21-16.91,3.98-19.68,3.11-.74-.23-1.34-.21-.92-.78Z"/>
      <path class="cls-3" d="M51.75,35.06c-1.34.21-1.03.07-1.42-.8-1.79-4-2.57-9.63-4.85-13.69-3.1-5.56-10.37-14.32-9.7-14.9,1.48-1.27,11.06,1.48,13.22,2.43,2.42,1.07,9.06,5.56,10.1,7.81,1.77,3.83-5.43,15.34-7.36,19.15Z"/>
      <path class="cls-1" d="M23,35.71c.22.21.99,4.66,1.43,5.92,3.14,8.79,7.41,16.73,13.91,23.47-5.76,1.76-21.6-4.46-23.96-9.59-1.61-3.49,4.43-15.68,6.81-18.73.36-.47,1.11-1.71,1.8-1.07Z"/>
      <path class="cls-4" d="M43.45,22.92c-.56.51-12.65-2.42-14.99-2.58-6.15-.42-10.63.7-16.46,1.5-.51.07-1.73.63-1.76-.51,0-.39,3.82-5.7,4.46-6.39,3.17-3.38,13.78-10.6,18.24-8.02,1.91,1.1,11.64,14.98,10.51,16Z"/>
      <path class="cls-7" d="M29.4,22.92c.84.74-5.03,5.86-5.73,6.73-5.9,7.23-7.05,12.07-10.85,19.83-1.66,3.39-2.98-.29-3.89-2.58-1.76-4.43-3.34-17.87-.29-21.42.8-.93,7.08-2.57,8.3-2.57,1.86,0,12-.41,12.46,0Z"/>
      <path class="cls-5" d="M29.68,47.11c.29-.08,5.34,1.22,6.65,1.49,9.14,1.9,25.64-.08,27.29.32-1.89,7.13-16.08,17.14-21.69,16.48-3.82-.45-10.73-12.37-12.1-16-.21-.56-1.06-2.03-.15-2.29Z"/>
      <path d="M36.69,3.36C18.94,3.36,4.56,17.75,4.56,35.5s14.39,32.14,32.14,32.14,32.14-14.39,32.14-32.14S54.44,3.36,36.69,3.36ZM35.79,5.67c1.48-1.27,11.05,1.48,13.22,2.43,2.42,1.07,9.06,5.56,10.1,7.81,1.77,3.83-5.43,15.34-7.36,19.15-1.34.21-1.03.07-1.42-.8-1.79-4-2.57-9.63-4.85-13.69-.39-1.57-10.37-14.32-9.7-14.9ZM48.57,38.56c-.2,1.07-7.85,8.93-8.6,9.04-1.04.16-10.61-2.19-11.57-2.9-1.13-.84-4.21-10.87-3.85-12.21.35-1.31,7.78-8.73,9.03-8.93,1.53-.24,10.61,1.77,11.63,2.73,1.33,1.25,3.71,10.32,3.36,12.27ZM14.7,14.94c3.17-3.38,13.78-10.6,18.24-8.02,1.91,1.1,11.64,14.98,10.51,16-.56.51-12.65-2.42-14.99-2.58-6.15-.42-10.63.7-16.46,1.5-.51.07-1.73.63-1.76-.51,0-.39,3.82-5.7,4.46-6.39ZM12.82,49.49c-1.66,3.39-2.98-.29-3.89-2.58-1.76-4.43-3.34-17.87-.29-21.42.8-.93,7.08-2.57,8.3-2.57,1.86,0,12-.41,12.46,0,.84.74-5.03,5.86-5.73,6.73-5.9,7.23-7.05,12.07-10.85,19.83ZM14.39,55.51c-1.6-3.49,4.43-15.68,6.81-18.73.36-.47,1.11-1.71,1.8-1.07.22.21.99,4.66,1.43,5.92,3.14,8.79,7.41,16.73,13.91,23.47-5.76,1.76-21.6-4.46-23.96-9.59ZM57.86,56.82c-2.49,2.51-12.63,8.78-15.93,8.14-2.41-.47-13.35-15.63-11.9-17.11.53-.54,12.38,2.43,14.99,2.58,2.72.16,6.24.14,8.97-.03,1.57-.1,8.65-1.73,9.28-1.26.38.28-4.78,7.06-5.41,7.69ZM45.17,48.38c-.74-.23-1.34-.21-.92-.78.05-.07.87-1.1,1.38-1.7,3.58-4.2,7.48-8.64,10.24-13.44.97-1.69,5.16-13.01,5.8-12.73,4.84,2.13,6.24,21.43,3.17,25.54-1.65,2.21-16.91,3.98-19.68,3.11Z"/>
    </g>
  </g>
  <g id="Schriftzug">
    <path class="cls-6" d="M90.78,27.22h-8.37l-2.18,5.66h-4.33l8.82-22.21h3.72l8.82,22.21h-4.3l-2.18-5.66ZM86.36,16.02c-.78,2.32-1.47,4.27-2.08,5.83l-.76,1.98h5.74l-.76-1.98c-.6-1.57-1.29-3.52-2.08-5.83h-.07Z"/>
    <path class="cls-6" d="M104.28,10.67v18.81h10.39v3.4h-14.46V10.67h4.07Z"/>
    <path class="cls-6" d="M122.55,29.48h10.92v3.4h-14.99V10.67h14.39v3.4h-10.33v5.74h8.87v3.4h-8.87v6.26Z"/>
    <path class="cls-6" d="M149.37,21c1.59,2.27,2.89,4.28,3.88,6.04h.1c-.13-2.89-.2-4.99-.2-6.31v-10.06h4.07v22.21h-4.27l-7.24-10.23c-1.27-1.77-2.59-3.82-3.95-6.16h-.1c.13,2.72.2,4.83.2,6.33v10.06h-4.07V10.67h4.27l7.31,10.33Z"/>
    <path class="cls-6" d="M175.25,27.22h-8.37l-2.18,5.66h-4.33l8.82-22.21h3.72l8.82,22.21h-4.3l-2.18-5.66ZM171.03,16.02c-.78,2.32-1.47,4.27-2.08,5.83l-.76,1.98h5.74l-.76-1.98c-.6-1.57-1.29-3.52-2.08-5.83h-.07Z"/>
    <path class="cls-6" d="M93.05,38.12v2.21l-11.89,16.6h12.04v3.4h-17.45v-2.19l11.9-16.62h-11.6v-3.4h17Z"/>
    <path class="cls-6" d="M104.37,56.93h10.92v3.4h-14.99v-22.21h14.39v3.4h-10.33v5.74h8.87v3.4h-8.87v6.26Z"/>
    <path class="cls-6" d="M137.05,44.8c0,1.55-.43,2.86-1.29,3.94-.86,1.08-2.18,1.88-3.98,2.4v.07l6.61,9.13h-4.88l-6.04-8.6h-2.79v8.6h-4.07v-22.21h6.76c1.12,0,2.16.06,3.12.19.96.13,1.79.32,2.47.57,1.31.5,2.31,1.24,3.02,2.22s1.06,2.21,1.06,3.69ZM126.69,48.33c.93,0,1.72-.04,2.37-.12.65-.08,1.19-.21,1.64-.37.82-.31,1.39-.73,1.7-1.27.31-.54.47-1.15.47-1.85,0-.6-.12-1.13-.37-1.59-.25-.46-.67-.82-1.27-1.09-.39-.18-.87-.31-1.46-.39s-1.31-.12-2.17-.12h-2.91v6.81h2.01Z"/>
    <path class="cls-6" d="M148.03,38.12v18.81h10.39v3.4h-14.46v-22.21h4.07Z"/>
    <path class="cls-6" d="M166.85,43.79h8.37l2.18-5.66h4.33l-8.82,22.21h-3.72l-8.82-22.21h4.3l2.18,5.66ZM171.06,54.99c.78-2.32,1.47-4.27,2.08-5.83l.76-1.98h-5.74l.76,1.98c.6,1.57,1.29,3.52,2.08,5.83h.07Z"/>
  </g>
</svg>